<mxfile host="app.diagrams.net" modified="2021-11-16T17:18:38.518Z" agent="5.0 (Windows NT 10.0; Win64; x64) AppleWebKit/537.36 (KHTML, like Gecko) Chrome/95.0.4638.69 Safari/537.36" etag="OPsEsQFXxRpcuQLzcW28" version="15.7.3" type="github">
  <diagram id="dsJ7s2vMgQMwFVYu8buw" name="Page-1">
    <mxGraphModel dx="911" dy="1157" grid="1" gridSize="10" guides="1" tooltips="1" connect="1" arrows="1" fold="1" page="1" pageScale="1" pageWidth="827" pageHeight="1169" math="0" shadow="0">
      <root>
        <mxCell id="0" />
        <mxCell id="1" parent="0" />
        <mxCell id="gx2fqg2UMWbFpVax5CwM-1" value="Cliente" style="whiteSpace=wrap;html=1;align=center;" parent="1" vertex="1">
          <mxGeometry x="387.5" y="690" width="100" height="40" as="geometry" />
        </mxCell>
        <mxCell id="gx2fqg2UMWbFpVax5CwM-2" value="Macchinario" style="whiteSpace=wrap;html=1;align=center;" parent="1" vertex="1">
          <mxGeometry x="754.5" y="690" width="100" height="40" as="geometry" />
        </mxCell>
        <mxCell id="gx2fqg2UMWbFpVax5CwM-3" value="Categoria" style="whiteSpace=wrap;html=1;align=center;" parent="1" vertex="1">
          <mxGeometry x="754.5" y="890" width="100" height="40" as="geometry" />
        </mxCell>
        <mxCell id="gx2fqg2UMWbFpVax5CwM-5" value="Progetto" style="whiteSpace=wrap;html=1;align=center;" parent="1" vertex="1">
          <mxGeometry x="864.5" y="440" width="100" height="40" as="geometry" />
        </mxCell>
        <mxCell id="gx2fqg2UMWbFpVax5CwM-6" value="Dipendente" style="whiteSpace=wrap;html=1;align=center;" parent="1" vertex="1">
          <mxGeometry x="654" y="230" width="100" height="40" as="geometry" />
        </mxCell>
        <mxCell id="gx2fqg2UMWbFpVax5CwM-7" value="Ingegnere" style="whiteSpace=wrap;html=1;align=center;" parent="1" vertex="1">
          <mxGeometry x="554" y="110" width="100" height="40" as="geometry" />
        </mxCell>
        <mxCell id="gx2fqg2UMWbFpVax5CwM-8" value="Operaio" style="whiteSpace=wrap;html=1;align=center;" parent="1" vertex="1">
          <mxGeometry x="754" y="110" width="100" height="40" as="geometry" />
        </mxCell>
        <mxCell id="gx2fqg2UMWbFpVax5CwM-9" value="Intervento" style="whiteSpace=wrap;html=1;align=center;" parent="1" vertex="1">
          <mxGeometry x="654" y="440" width="100" height="40" as="geometry" />
        </mxCell>
        <mxCell id="gx2fqg2UMWbFpVax5CwM-10" value="Corriere" style="whiteSpace=wrap;html=1;align=center;" parent="1" vertex="1">
          <mxGeometry x="1120.5" y="690" width="100" height="40" as="geometry" />
        </mxCell>
        <mxCell id="gx2fqg2UMWbFpVax5CwM-11" value="Acquisto" style="shape=rhombus;perimeter=rhombusPerimeter;whiteSpace=wrap;html=1;align=center;" parent="1" vertex="1">
          <mxGeometry x="574.5" y="680" width="120" height="60" as="geometry" />
        </mxCell>
        <mxCell id="gx2fqg2UMWbFpVax5CwM-14" value="Appartenenza" style="shape=rhombus;perimeter=rhombusPerimeter;whiteSpace=wrap;html=1;align=center;" parent="1" vertex="1">
          <mxGeometry x="744.5" y="780" width="120" height="60" as="geometry" />
        </mxCell>
        <mxCell id="gx2fqg2UMWbFpVax5CwM-17" value="Partecipazione" style="shape=rhombus;perimeter=rhombusPerimeter;whiteSpace=wrap;html=1;align=center;" parent="1" vertex="1">
          <mxGeometry x="854" y="330" width="120" height="60" as="geometry" />
        </mxCell>
        <mxCell id="gx2fqg2UMWbFpVax5CwM-18" value="Affido" style="shape=rhombus;perimeter=rhombusPerimeter;whiteSpace=wrap;html=1;align=center;" parent="1" vertex="1">
          <mxGeometry x="920.5" y="680" width="120" height="60" as="geometry" />
        </mxCell>
        <mxCell id="FtTrVJw0tq06EMOVsZJ_-155" value="Esecuzione" style="shape=rhombus;perimeter=rhombusPerimeter;whiteSpace=wrap;html=1;align=center;" vertex="1" parent="1">
          <mxGeometry x="644" y="540" width="120" height="60" as="geometry" />
        </mxCell>
        <mxCell id="FtTrVJw0tq06EMOVsZJ_-156" value="Coinvolgimento" style="shape=rhombus;perimeter=rhombusPerimeter;whiteSpace=wrap;html=1;align=center;" vertex="1" parent="1">
          <mxGeometry x="644" y="330" width="120" height="60" as="geometry" />
        </mxCell>
        <mxCell id="FtTrVJw0tq06EMOVsZJ_-157" value="Manutenzione" style="whiteSpace=wrap;html=1;align=center;" vertex="1" parent="1">
          <mxGeometry x="460" y="390" width="100" height="40" as="geometry" />
        </mxCell>
        <mxCell id="FtTrVJw0tq06EMOVsZJ_-158" value="Sostituzione" style="whiteSpace=wrap;html=1;align=center;" vertex="1" parent="1">
          <mxGeometry x="460" y="470" width="100" height="40" as="geometry" />
        </mxCell>
        <mxCell id="FtTrVJw0tq06EMOVsZJ_-159" value="Realizzazione" style="shape=rhombus;perimeter=rhombusPerimeter;whiteSpace=wrap;html=1;align=center;" vertex="1" parent="1">
          <mxGeometry x="854.5" y="540" width="120" height="60" as="geometry" />
        </mxCell>
        <mxCell id="FtTrVJw0tq06EMOVsZJ_-160" value="Base" style="whiteSpace=wrap;html=1;align=center;" vertex="1" parent="1">
          <mxGeometry x="654.5" y="1000" width="100" height="40" as="geometry" />
        </mxCell>
        <mxCell id="FtTrVJw0tq06EMOVsZJ_-161" value="Accessoria" style="whiteSpace=wrap;html=1;align=center;" vertex="1" parent="1">
          <mxGeometry x="1020" y="850" width="100" height="40" as="geometry" />
        </mxCell>
      </root>
    </mxGraphModel>
  </diagram>
</mxfile>
